<?xml version="1.0" encoding="UTF-8"?>
<svg width="414px" height="453px" viewBox="0 0 414 453" version="1.1" xmlns="http://www.w3.org/2000/svg" xmlns:xlink="http://www.w3.org/1999/xlink">
    <!-- Generator: Sketch 59.1 (86144) - https://sketch.com -->
    <title>img_beat the shark</title>
    <desc>Created with Sketch.</desc>
    <defs>
        <path d="M13.1449304,0.712281853 C2.72834074,40.2268395 -1.2764834,65.1285367 1.13045804,75.4173734 C3.53739947,85.7062101 13.9658448,90.4317702 32.4157941,89.5940538 C35.6060925,103.666797 43.6325346,110.09555 56.4951205,108.880312 C69.3577063,107.665075 77.7985557,101.236322 81.8176687,89.5940538 C93.4404839,93.0297511 101.845023,92.6639854 107.031285,88.4967566 C114.810679,82.2459135 112.659933,71.2304406 110.964522,66.174182 C109.269111,61.1179234 105.76732,59.0310145 102.530564,47.4542796 C100.372726,39.7364563 99.2677893,31.9693597 99.2157537,24.1529897 L94.2729305,0.712281853 L13.1449304,0.712281853 Z" id="path-1"></path>
        <path d="M1.94700132,0.724833027 C-3.61901973,39.1425052 5.06742411,60.0250993 28.0063328,63.3726153 C62.4146959,68.3938894 75.3112653,41.0511973 76.8644829,28.0818203 C77.8999613,19.435569 77.8999613,10.3165732 76.8644829,0.724833027 L1.94700132,0.724833027 Z" id="path-3"></path>
        <path d="M46.367622,23.9074235 C66.2146246,26.3775909 53.2170529,32.1648677 63.0973025,32.5824338 C72.9775521,33 72.9775521,26.3775909 85.2553023,26.76891 C97.5330525,27.1602291 101.632752,34.8501904 108.771605,32.5824338 C115.910457,30.3146772 115.230974,25.5864125 126.386273,23.9074235 C137.541571,22.2284344 144.068045,27.1490121 157.285655,27.1490121 C170.503264,27.1490121 179.673472,15.6743621 170.503264,13.42244 C161.333057,11.170518 121.986462,16.5216067 118.409465,12.9761112 C114.832469,9.43061562 140.576291,8.43758211 140.576291,4.67189434 C140.576291,0.90620658 124.404692,-1.9985746 107.185956,1.73554999 C89.9672197,5.46967457 92.0606517,6.98078397 74.8407071,8.43758211 C57.6207624,9.89438025 37.7611635,-0.696810513 27.6370481,1.73554999 C17.5129327,4.16791048 37.1104851,7.50927654 30.4178578,12.335906 C23.7252305,17.1625354 -3.24530843,15.3396415 0.323795181,18.5224061 C3.89289879,21.7051706 26.5206193,21.4372561 46.367622,23.9074235 Z" id="path-5"></path>
        <path d="M21.0083064,1.42211593 C7.89084301,17.4835643 3.45291861,30.3554063 7.69453324,40.0376417 C12.0606099,50.0039837 26.3769563,57.2689585 50.6435725,61.8325661 C41.9895112,67.9713164 33.3808749,70.7587197 24.8176638,70.1947761 C16.7510552,69.6635371 9.09555057,65.9418133 1.85115002,59.0296049 L1.85115372,59.029601 C1.50782117,58.702012 0.963931774,58.7147746 0.636342746,59.0581072 C0.49586274,59.2053385 0.412197991,59.3976505 0.400246825,59.6007979 C-0.170101036,69.2956409 -0.130893751,77.9171468 0.517868681,85.4653155 C1.20836026,93.4989911 3.60058178,101.585327 7.69453324,109.724323 C20.5803815,119.314934 34.727675,123.151427 50.136414,121.2338 C65.5451529,119.316172 79.1993011,113.332811 91.0988586,103.283716 C88.9854385,76.49565 81.5845606,54.2423997 68.8962249,36.5239649 C56.6085527,19.3650305 41.6180899,7.40528865 23.9248364,0.644739164 L23.9248379,0.644735449 C22.8867289,0.2480765 21.7112678,0.561387191 21.0083064,1.42211593 Z" id="path-7"></path>
        <path d="M16.2707147,12.0957449 C16.5205945,11.1452694 16.3243812,10.4493578 15.6820745,10.0080102 C14.7186146,9.34598891 7.53762791,9.77555104 4.63444553,9.01105713 C1.73126315,8.24656321 -1.43622017,4.04350591 3.61981738,1.96187664 C8.67585492,-0.119752639 13.3677517,-1.61112211 19.524139,3.23584187 C23.6283971,6.46715119 25.2374982,12.2633166 24.3514422,20.6243382 C23.3124545,19.9690608 21.9758742,18.8269937 20.3417013,17.1981368 C18.7075283,15.56928 17.3505328,13.8684827 16.2707147,12.0957449 Z" id="path-9"></path>
        <path d="M1.80832664,0.650006191 C-0.27467418,2.77961895 0.30607201,26.9144419 14.2593756,41.7678468 C18.7043272,46.4995338 19.2919082,50.9762447 22.8294107,56.1930341 C34.6549928,73.6323356 26.2686651,68.4779387 29.4566838,80.3769739 C32.6447025,92.2760091 25.1530047,101.422272 28.0424449,107.432356 C30.9318851,113.44244 36.7776847,113.44244 39.7255461,104.558314 C42.6734074,95.6741874 36.4613045,78.8298695 37.6819795,75.5204028 C38.9026544,72.2109362 42.1716178,73.017402 44.7281174,80.3256835 C47.2846171,87.633965 44.7281174,96.4420962 45.828512,104.558314 C46.9289066,112.674531 49.7348586,130.62587 54.4106608,125.630674 C59.086463,120.635479 50.2834244,80.3256835 57.4702974,80.3256835 C59.6596897,80.3256835 63.5971375,81.9157311 62.6283465,90.7640882 C61.5737015,100.396584 68.3887398,98.1859027 68.3887398,80.3256835 C68.3887398,70.0397846 67.5774932,62.3515732 64.0171725,61.0046295 C62.2072487,60.3198976 60.54971,62.9104662 56.2224933,63.6063362 C50.562025,64.5166095 40.7649992,58.5681618 35.6140774,54.1046244 C6.88502181,29.2094272 4.78038993,-2.38856385 1.80832664,0.650006191 Z" id="path-11"></path>
    </defs>
    <g id="Page-1" stroke="none" stroke-width="1" fill="none" fill-rule="evenodd">
        <g id="illustration_pirate-kill-a-shark" transform="translate(-273.000000, -273.000000)">
            <g id="img_beat-the-shark" transform="translate(454.000000, 483.000000) scale(-1, 1) translate(-454.000000, -483.000000) translate(221.000000, 240.000000)">
                <g id="Group-2" transform="translate(219.979574, 371.886105)">
                    <path d="M10.9925523,46.2213066 L34.0319193,39.2744026 C34.5934271,39.1050949 35.0298194,38.6611172 35.1894264,38.0967753 L40.683202,18.671774 C40.7794316,18.3315235 40.9782783,18.0292406 41.2526203,17.8061554 L58.2532728,3.98182477 C58.5170969,3.76729228 58.8386369,3.63585189 59.1771952,3.60414008 L96.7700635,0.0829213558 C97.3252886,0.0309149778 97.8712274,0.251559437 98.2344017,0.674742505 L112.873545,17.7327674 C113.105882,18.0034942 113.416717,18.1952006 113.762928,18.2812912 L127.218831,21.6273067 C127.846592,21.783409 128.333506,22.2788145 128.478734,22.9091795 L132.130149,38.758243 C132.251971,39.2870154 132.616379,39.7271872 133.113115,39.9455772 L153.787827,49.0352151 C154.217161,49.2239717 154.550695,49.580001 154.711068,50.0207243 L164.894266,78.0052723 L164.894266,78.0052723 L8.52651283e-14,78.0052723 L9.85256137,47.3409252 C10.0253964,46.8030069 10.4516052,46.3844147 10.9925523,46.2213066 Z" id="Path-61" fill="#D8D8D8"></path>
                    <path d="M101.599854,29.0365929 C102.52018,27.2817609 103.804134,25.679072 105.451717,24.2285262 C107.923091,22.0527075 102.960308,21.1632916 101.79673,24.2285262 C101.021012,26.2720159 100.63308,27.2883452 100.632934,27.2775141 C99.8281026,26.1744529 99.1433703,25.2740444 98.5787375,24.5762886 C97.7317882,23.5296548 95.2195527,24.3832268 95.95512,26.2141645 C96.6906873,28.0451022 98.2574751,27.2741958 98.9388449,27.6796647 C99.3862678,27.9459168 99.8497987,28.3320299 99.8497987,29.0365929 C99.8497987,29.1518502 100.43315,29.1518502 101.599854,29.0365929 Z" id="Path-62" fill="#56A921" transform="translate(100.977320, 25.686107) scale(-1, 1) translate(-100.977320, -25.686107) "></path>
                    <path d="M49.1186467,62.2107771 L66.7142077,52.5760267 C66.979804,52.4305949 67.2022567,52.2175657 67.3590418,51.9585093 L80.8095796,29.7341349 C81.1234278,29.2155623 81.6872616,28.9006892 82.2933928,28.9054989 L108.681997,29.1148977 C109.313737,29.1199107 109.891786,29.4711508 110.187273,30.0295488 L119.679256,47.9671117 L119.679256,47.9671117 L137.843812,56.559287 L140.018092,78.0052723 L20.2094957,78.0052723 L28.416881,66.1787938 L48.6100022,62.3925152 C48.7880703,62.3591268 48.9597385,62.29779 49.1186467,62.2107771 Z" id="Path-61" fill="#E4E4E4"></path>
                    <path d="M56.78126,80.493275 C58.774411,76.764257 61.5550724,73.3585431 65.1232442,70.2761333 C70.4755019,65.6525186 59.7275973,63.7625099 57.2076355,70.2761333 C55.5276611,74.6185489 54.6875162,76.7782487 54.6872008,76.7552326 C52.9441759,74.4112276 51.4612504,72.4978595 50.2384243,71.0151284 C48.4041851,68.7910317 42.9634336,70.6048721 44.5564526,74.4956147 C46.1494717,78.3863573 49.542666,76.7481813 51.0183093,77.6098028 C51.9872938,78.1755884 52.9911632,78.9960788 52.9911632,80.493275 C52.9911632,80.7381968 54.2545288,80.7381968 56.78126,80.493275 Z" id="Path-62" fill="#56A921"></path>
                </g>
                <g id="img_longscan">
                    <g id="Group-5" transform="translate(55.830186, 0.000000)">
                        <g id="Group-4" transform="translate(205.168439, 231.794236) rotate(-8.000000) translate(-205.168439, -231.794236) translate(28.168439, 22.794236)">
                            <g id="Group-3" transform="translate(0.221182, 0.470601)">
                                <polygon id="Path-39" fill="#FFFFFF" points="89.9152886 180.192875 76.8406617 258.70124 145.175358 263.392955 146.558648 212.737229 131.46893 176.138151"></polygon>
                                <g id="Group-2" transform="translate(-0.000000, -0.000000)">
                                    <polygon id="Path-21" fill="#DC3E42" points="93.718972 198.682223 130.403142 198.682223 131.46893 207.498468 92.004121 207.498468"></polygon>
                                    <polygon id="Path-22" fill="#DC3E42" points="91.0970747 217.091499 133.031077 217.091499 134.836558 224.975402 89.9152886 224.975402"></polygon>
                                    <path d="M88.5976757,235.452195 L136.310788,235.452195 L137.863095,243.321727 C103.335822,244.061007 86.3185435,244.061007 86.8112583,243.321727 C87.3039731,242.582447 87.8994455,239.95927 88.5976757,235.452195 Z" id="Path-23" fill="#DC3E42"></path>
                                    <polygon id="Path-14" fill="#2C3F4D" points="70.5334066 268.345786 60.5820165 339.153606 76.0841462 341.332288 95.4398892 281.415514 119.262162 272.095685 155.670462 282.588089 159.314819 290.39255 178.274387 289.269336 178.872098 272.807406 151.429823 260.015275 137.635031 255.187869 86.2882656 255.187869"></polygon>
                                    <g id="Group-14" transform="translate(224.385308, 35.537507)">
                                        <rect id="Rectangle" fill="#847A16" transform="translate(17.624089, 128.467840) rotate(-315.000000) translate(-17.624089, -128.467840) " x="10.8274366" y="111.476208" width="13.5933053" height="33.9832632" rx="4.24790791"></rect>
                                        <rect id="Rectangle" fill="#998D1C" transform="translate(28.134454, 118.091460) rotate(-45.000000) translate(-28.134454, -118.091460) " x="23.8865457" y="99.4006651" width="8.49581581" height="37.3815896" rx="4.24790791"></rect>
                                        <path d="M4.86546234,135.775051 C4.86546234,135.775051 7.73616911,130.729003 8.88730498,129.41728 C9.65472889,128.542797 12.8222724,126.409891 18.3899356,123.01856 C23.2668039,123.87639 26.3122025,124.151698 27.5261315,123.844484 C28.7400604,123.53727 29.542362,122.714359 29.9330362,121.375753 L17.9223028,117.765454 C17.3859957,117.604246 16.8046945,117.717646 16.3683007,118.068607 L-1.61648472e-12,131.232503 L-1.61648472e-12,131.232503 C3.24364156,134.260869 4.86546234,135.775051 4.86546234,135.775051 Z" id="Path-43" fill="#ED9372"></path>
                                        <path d="M15.5925451,141.021825 L20.3383978,138.735858 C21.1838529,138.328622 21.5390997,137.313115 21.1318636,136.46766 C21.0183303,136.231956 20.8519022,136.025652 20.6455497,135.864826 L15.1335686,131.568928 L15.1335686,131.568928 C14.3610034,132.145657 14.0671373,132.787731 14.2519703,133.495151 C14.4368034,134.202571 15.2005624,135.55345 16.5432474,137.547789 L15.5925451,141.021825 Z" id="Path-52" fill="#ED9372" transform="translate(18.501686, 136.295377) rotate(8.000000) translate(-18.501686, -136.295377) "></path>
                                        <path d="M17.4582945,132.441785 C16.7046906,131.733264 16.8416366,130.239647 17.8691326,127.960933 L24.4487763,132.335587 C25.1613195,132.809341 25.4104191,133.73903 25.0301999,134.505577 L24.3673828,135.84186 C23.9503729,136.682521 22.930838,137.025987 22.090165,136.609 C21.9478983,136.538433 21.8162267,136.44827 21.6989945,136.341144 C19.4838717,134.31697 18.070305,133.017183 17.4582945,132.441785 Z" id="Path-53" fill="#ED9372" transform="translate(21.337713, 132.911663) rotate(8.000000) translate(-21.337713, -132.911663) "></path>
                                        <path d="M21.0226615,127.850892 C20.3507595,126.710234 20.790104,125.486509 22.3406952,124.179719 L27.4046713,128.450072 C28.0715994,129.012479 28.2042455,129.988573 27.7115884,130.708562 L26.8814817,131.921714 C26.3515408,132.696174 25.2941169,132.894406 24.5196515,132.364473 C24.3883373,132.274621 24.2702946,132.166769 24.1689829,132.044079 C22.5960445,130.139227 21.5472707,128.741497 21.0226615,127.850892 Z" id="Path-53" fill="#ED9372"></path>
                                        <path d="M25.7450453,109.81741 L121.037018,-3.98614475e-12 C124.918645,4.87443579 127.097341,9.93497703 127.573108,15.1816237 C128.048874,20.4282704 127.144103,26.8660526 124.858794,34.4949702 L114.567142,33.0485729 L122.955337,38.74664 C120.435718,44.357833 117.188961,49.9943142 113.215066,55.6560837 C109.241171,61.3178531 104.972987,66.3882146 100.410513,70.867168 L94.4082871,67.2924112 L97.087803,73.4612481 C93.0436982,78.0895097 83.7334666,86.2037396 69.1571082,97.8039378 C54.5807498,109.404136 43.943109,117.187686 37.2441858,121.154589 L25.7450453,109.81741 Z" id="Path-54" fill="#8C8486"></path>
                                    </g>
                                    <polygon id="Path-12" fill="#1A181C" points="62.8942249 176.680289 27.1817396 185.822473 0.112294098 217.420774 15.1059482 225.999964 36.9998552 199.768122 56.8777032 199.033472 45.2144573 262.310168 85.5722804 274.27921 94.539634 195.289007 93.0365005 180.659695"></polygon>
                                    <polygon id="Path-13" fill="#1A181C" points="129.378727 197.613336 138.697455 263.392955 170.081389 258.168417 159.64999 209.135808 188.757582 213.914949 237.293652 178.781279 218.884262 161.536418 183.917687 194.472923 163.196637 183.900105 150.194498 180.192756 135.455711 182.242641"></polygon>
                                    <g id="Path-33" transform="translate(57.497821, 94.370859)">
                                        <mask id="mask-2" fill="white">
                                            <use xlink:href="#path-1"></use>
                                        </mask>
                                        <use id="Mask" fill="#7C3C22" xlink:href="#path-1"></use>
                                        <path d="M55.6368756,63.9682415 C50.0239607,73.9832621 46.6836655,81.7029183 45.61599,87.1272103 C44.0144767,95.2636483 48.835244,102.507843 45.9924586,105.299719 C44.0972684,107.160969 39.5346463,103.288909 32.3045925,93.6835385 L21.8913879,94.8539941 L-6.43881003,77.4353552 L-5.43423614,38.4293133 L5.92189002,-10.0505986 L27.9536789,-10.0505986 L27.9536789,28.598911 L55.6368756,63.9682415 Z" fill="#682E21" mask="url(#mask-2)"></path>
                                    </g>
                                    <g id="Path-34" transform="translate(78.676380, 93.910188)">
                                        <g transform="translate(0.396103, 0.448120)">
                                            <mask id="mask-4" fill="white">
                                                <use xlink:href="#path-3"></use>
                                            </mask>
                                            <use id="Mask" fill="#ED9372" xlink:href="#path-3"></use>
                                            <path d="M12.5053476,-7 C9.32763261,4.72473935 7.73877509,15.1242895 7.73877509,24.1986504 C7.73877509,33.2730114 9.96217804,43.8411305 14.4089839,55.9030078 L18.388197,61.905355 L0.316725935,51.9717798 L-2,-2.92889529 L12.5053476,-7 Z" fill="#E18057" mask="url(#mask-4)"></path>
                                        </g>
                                        <ellipse id="Oval" fill="#1A181C" cx="60.0919362" cy="19.9725421" rx="4.66101695" ry="8.89830508"></ellipse>
                                        <ellipse id="Oval" fill="#1A181C" cx="24.4822211" cy="20.2084287" rx="4.66101695" ry="8.89830508"></ellipse>
                                    </g>
                                    <path d="M123.465076,134.846948 C116.663271,134.273333 111.81341,134.871282 108.915494,136.640795 C104.56862,139.295063 104.104913,145.135653 99.3745648,147.812243 C96.2209995,149.596637 92.0332307,150.072424 86.8112583,149.239605 C91.3759039,157.077561 97.272862,160.996539 104.502132,160.996539 C111.731403,160.996539 117.823596,156.830643 122.778711,148.49885 C124.968773,155.938364 130.164935,159.870453 138.367195,160.295115 C146.569456,160.719778 152.350929,157.703882 155.711615,151.247427 C153.109944,153.398313 150.673877,154.089007 148.403413,153.31951 C144.997717,152.165264 146.084393,149.006608 141.408576,142.476703 C138.291365,138.123433 134.925349,135.904022 131.310527,135.818469 L123.465076,134.846948 Z" id="Path-11" fill="#53231E"></path>
                                    <path d="M70.7372471,105.794009 C67.2453451,100.419797 64.0201726,98.7426899 61.0617297,100.762687 C56.6240652,103.792683 55.0083813,108.31223 56.8509899,115.799604 C58.0793957,120.791187 61.5033095,123.286978 67.1227312,123.286978 C68.1038799,120.021759 68.8433286,117.13162 69.3410775,114.61656 C69.8388264,112.101499 70.3042162,109.160649 70.7372471,105.794009 Z" id="Path-26" fill="#CC764F"></path>
                                    <path d="M70.3537764,108.022805 C67.9639942,104.388039 65.7567559,103.253753 63.7320615,104.619948 C60.6950199,106.669239 59.5892808,109.725965 60.8503223,114.789936 C61.6910166,118.165917 64.0342691,119.853907 67.8800799,119.853907 C68.5515568,117.645526 69.0576196,115.690825 69.3982681,113.989802 C69.7389167,112.28878 70.0574195,110.299781 70.3537764,108.022805 Z" id="Path-26" fill="#AF6542"></path>
                                    <path d="M60.2649775,119.544695 C62.5007075,119.544695 63.7120625,120.48895 63.8990426,122.37746 C64.1795127,125.210225 62.3964602,126.336941 60.701037,126.389793 C59.0056137,126.442645 57.3859192,126.110359 56.762649,123.980106 C56.3471356,122.559937 56.7431242,121.184537 57.9506148,119.853907" id="Path-27" stroke="#EBB333" stroke-width="3.21700427" stroke-linecap="round" stroke-linejoin="round"></path>
                                    <path d="M122.700379,113.556826 C128.348443,113.556826 132.161508,126.088617 132.161508,129.968733 C132.161508,133.848849 130.306343,142.569166 123.439004,142.569166 C116.571664,142.569166 113.087937,138.063352 113.135171,130.756195 C113.182404,123.449037 117.052315,113.556826 122.700379,113.556826 Z" id="Path-28" fill="#CC764F"></path>
                                    <path d="M41.5928636,95.0831407 L185.386806,95.0831407 L191.349155,69.9212902 C179.5209,70.4170142 171.200495,66.2332187 166.38794,57.3699039 C159.169107,44.0749316 160.626192,19.8300816 142.814446,8.52853378 C125.002701,-2.77301403 94.20155,-2.47516166 83.1503117,7.25030323 C77.609129,12.1267321 73.143002,17.4165792 69.8656587,26.7386421 C65.932675,37.925606 65.932675,52.9769089 60.6567539,60.2202823 C55.7709788,66.9280196 47.7643035,71.3002828 36.636728,73.3370718 L41.5928636,95.0831407 Z" id="Path-2" fill="#1A181C"></path>
                                    <path d="M129.704286,98.9845809 C132.173694,98.5790147 134.600284,98.5600163 136.984054,98.9275855 C139.344607,99.2915748 141.502924,100.066189 143.459002,101.251427 L143.458996,101.251437 C143.859291,101.493985 144.380418,101.366107 144.622967,100.965813 C144.738792,100.774658 144.774414,100.545487 144.722077,100.328194 C143.749143,96.2887698 141.572495,93.9248835 138.192133,93.2365345 C134.786841,92.5431091 131.688033,94.0079443 128.895711,97.6310401 L128.895741,97.6310632 C128.610044,98.0017612 128.67895,98.5338748 129.049648,98.8195721 C129.235586,98.9628745 129.472638,99.0226259 129.704286,98.9845809 Z" id="Path-29" fill="#7C3C22" transform="translate(136.377158, 97.721644) rotate(-11.000000) translate(-136.377158, -97.721644) "></path>
                                    <path d="M95.4119189,101.754864 C97.6769226,100.424375 99.9531425,99.6202357 102.240579,99.342446 C104.441358,99.0751801 106.631754,99.1582957 108.811768,99.5917929 L108.811768,99.5917966 C109.27082,99.6830795 109.716954,99.3849435 109.808237,98.9258913 C109.851223,98.7097201 109.8083,98.4853062 109.688574,98.3002565 C107.24778,94.52775 104.313478,92.9299026 100.885668,93.5067143 C97.4628474,94.0826862 95.2209273,96.5208306 94.1599074,100.821147 L94.159913,100.821149 C94.0477967,101.275557 94.3252787,101.734815 94.7796866,101.846931 C94.9943713,101.899901 95.221257,101.866861 95.4119189,101.754864 Z" id="Path-30" fill="#7C3C22" transform="translate(102.240579, 98.101543) rotate(3.000000) translate(-102.240579, -98.101543) "></path>
                                    <path d="M116.70971,33.2761505 C137.792075,33.2761505 139.035653,45.8240844 135.391933,52.9974997 C134.055144,55.6292456 131.488247,57.4945727 127.691242,58.5934811 C129.487603,61.0758421 129.487603,62.9061725 127.691242,64.0844723 C126.677007,64.7497471 125.358394,64.3508135 123.735405,62.8876713 C123.929939,64.6642868 123.339647,65.7679032 121.964528,66.1985203 C120.589409,66.6291374 119.315568,66.0569259 118.143006,64.4818857 C117.608533,66.1200699 116.435708,66.939162 114.624529,66.939162 C112.81335,66.939162 111.610789,65.5886651 111.016844,62.8876713 C109.338847,65.3458617 107.705696,66.0476505 106.117392,64.9930377 C104.529087,63.9384248 104.529087,62.0489957 106.117392,59.3247503 C102.21832,56.9642345 99.8061689,55.1412925 98.8809374,53.8559244 C90.9930461,42.8977552 100.596382,33.2761505 116.70971,33.2761505 Z M106.840367,41.6028179 C103.28431,41.6028179 100.401557,44.4955505 100.401557,48.063917 C100.401557,51.6322835 103.28431,54.5250161 106.840367,54.5250161 C110.396423,54.5250161 113.279177,51.6322835 113.279177,48.063917 C113.279177,44.4955505 110.396423,41.6028179 106.840367,41.6028179 Z M126.87222,40.884918 C123.316163,40.884918 120.43341,43.7776506 120.43341,47.3460171 C120.43341,50.9143836 123.316163,53.8071162 126.87222,53.8071162 C130.428277,53.8071162 133.31103,50.9143836 133.31103,47.3460171 C133.31103,43.7776506 130.428277,40.884918 126.87222,40.884918 Z" id="Combined-Shape" fill="#FCE9B6"></path>
                                    <path d="M151.98996,290.448606 C152.826572,290.566184 163.040998,289.828071 182.633239,288.234266 L179.072924,351.875851 C188.297736,360.222212 192.910143,364.395392 192.910143,364.395392 C192.910143,364.395392 183.163562,363.0256 163.6704,360.286015 C155.046829,313.610164 151.153349,290.331028 151.98996,290.448606 Z" id="Path-55" fill="#1A181C"></path>
                                    <path d="M49.1364664,336.62719 L83.5736524,341.467021 L59.3313131,416.810098 C38.7725365,416.035272 28.4931482,415.647859 28.4931482,415.647859 C28.4931482,415.647859 33.8918615,412.165814 44.6892879,405.201723 L49.1364664,336.62719 Z" id="Path-56" fill="#1A181C"></path>
                                    <path d="M170.576627,326.997046 L183.758671,328.849662 L181.712066,343.412012 L168.348859,342.848435 L170.576627,326.997046 Z M173.258801,331.054102 L172.1084,339.239629 L179.596743,339.833587 L180.68396,332.09764 L173.258801,331.054102 Z" id="Combined-Shape" fill="#998D1C"></path>
                                    <path d="M43.1072718,384.511023 C43.2755002,384.534717 47.7831604,384.981923 56.6302523,385.852641 L56.9874406,402.014283 L42.4873632,400.642698 C42.7324071,389.864656 42.9390434,384.487431 43.1072718,384.511023 Z M46.5775107,387.787503 L46.0803467,397.354869 L53.6579168,398.419827 L53.6211072,388.777416 L46.5775107,387.787503 Z" id="Combined-Shape" fill="#998D1C"></path>
                                </g>
                            </g>
                        </g>
                    </g>
                    <g id="Group-13" transform="translate(0.010561, 228.431674)">
                        <g id="Path-80" transform="translate(0.574970, 223.660668)">
                            <mask id="mask-6" fill="white">
                                <use xlink:href="#path-5"></use>
                            </mask>
                            <use id="Mask" fill="#A91A1D" xlink:href="#path-5"></use>
                            <path d="M54.249202,17.7103023 C69.1136881,28.3853127 82.9775521,20.3775909 95.2553023,20.76891 C107.533052,21.1602291 110.047103,23.0366666 117.185956,20.76891 C124.324809,18.5011534 125.230974,17.5864125 136.386273,15.9074235 C147.541571,14.2284344 154.068045,19.1490121 167.285655,19.1490121 C180.503264,19.1490121 189.673472,7.67436208 180.503264,5.42244005 C171.333057,3.17051801 156.945157,6.80150351 153.368161,3.25600797 C149.791164,-0.289487575 150.576291,0.43758211 150.576291,-3.32810566 C150.576291,-7.09379342 134.404692,-9.9985746 117.185956,-6.26445001 C99.9672197,-2.53032543 102.060652,-1.01921603 84.8407071,0.43758211 C67.6207624,1.89438025 47.7611635,-8.69681051 37.6370481,-6.26445001 C27.5129327,-3.83208952 21.8290399,-8.15473507 15.1364127,-3.32810566 C8.4437854,1.49852376 6.75469157,7.33964151 10.3237952,10.5224061 C13.8928988,13.7051706 39.3847159,7.03529196 54.249202,17.7103023 Z" fill="#BA1C20" mask="url(#mask-6)"></path>
                        </g>
                        <g id="Group" transform="translate(90.353553, 88.353553) scale(-1, 1) rotate(-45.000000) translate(-90.353553, -88.353553) translate(27.853553, 26.353553)">
                            <path d="M79.7478792,58.6854496 C88.9807796,59.1547648 97.9158142,61.4093896 106.552983,65.4493238 C115.190152,69.4892581 121.006505,74.1344481 124.002042,79.3848939 C121.288966,79.1877559 118.76148,79.1877559 116.419583,79.3848939 C114.077687,79.582032 111.70945,79.9098107 109.314873,80.3682301 L107.285677,76.7016539 L106.552983,81.1381923 L100.226956,82.38105 L95.5486539,76.7016539 L95.5486539,83.7083935 L89.0860771,86.6211512 L79.7478792,58.6854496 Z" id="Path-73" fill="#6F6E70"></path>
                            <polygon id="Path-74" fill="#F5D385" points="34.0130964 57.8204548 35.5287144 64.1772826 38.5232679 59.2761281"></polygon>
                            <polygon id="Path-75" fill="#F5D385" points="21.0408733 52.8766772 21.0408733 58.679687 24.8151559 55.0400362"></polygon>
                            <polygon id="Path-76" fill="#F5D385" points="10.7652693 44.3256032 10.7652693 51.3565857 14.6214167 47.8410945"></polygon>
                            <polygon id="Path-78" fill="#F5D385" points="11.1170065 66.738101 15.1896708 61.5054611 15.1896708 69.9491714"></polygon>
                            <g id="Path-79" transform="translate(-0.000000, -0.000000)">
                                <g transform="translate(0.935110, -0.000000)">
                                    <g transform="translate(0.064890, -0.000000)">
                                        <g transform="translate(-0.000000, 0.489408)">
                                            <g transform="translate(-0.000000, 0.510592)">
                                                <mask id="mask-8" fill="white">
                                                    <use xlink:href="#path-7"></use>
                                                </mask>
                                                <use id="Mask" fill="#8C8486" xlink:href="#path-7"></use>
                                            </g>
                                        </g>
                                    </g>
                                </g>
                            </g>
                        </g>
                        <path d="M39.7370031,97.1195444 C47.6306238,90.769139 54.7338131,85.5711562 61.0465712,81.5255961 C67.3593293,77.480036 74.7092026,73.9821787 83.0961911,71.0320243 L86.8893272,77.5487769 C78.5786153,82.6615115 70.9821966,88.0010005 64.1000712,93.567244 C57.2179457,99.1334875 51.1551589,105.2563 45.9117108,111.935683 L39.7370031,97.1195444 Z" id="Path-123" fill="#6F6E70"></path>
                        <line x1="103.485671" y1="80.7960644" x2="111.861801" y2="89.1721943" id="Line-11" stroke="#1A181C" stroke-width="2.57769653" stroke-linecap="round" stroke-linejoin="round"></line>
                        <line x1="103.485671" y1="80.7960644" x2="111.861801" y2="89.1721943" id="Line-11" stroke="#1A181C" stroke-width="2.57769653" stroke-linecap="round" stroke-linejoin="round" transform="translate(107.706041, 85.092225) scale(-1, 1) translate(-107.706041, -85.092225) "></line>
                        <g id="Path-70" transform="translate(87.574970, 101.916609)">
                            <mask id="mask-10" fill="white">
                                <use xlink:href="#path-9"></use>
                            </mask>
                            <use id="Mask" fill="#DC3E42" xlink:href="#path-9"></use>
                            <path d="M16.3182467,17.8398034 C16.5681265,16.8893279 16.3719132,16.1934163 15.7296065,15.7520688 C14.7661466,15.0900474 7.5851599,15.5196095 4.68197752,14.7551156 C1.77879514,13.9906217 -3.0960931,14.2420243 1.95994445,12.160395 C7.01598199,10.0787657 13.0720867,5.17210985 19.2284739,10.0190738 C23.3327321,13.2503831 24.4885477,18.5944523 22.6959209,26.0512812 C22.7923021,25.6074141 22.0234062,24.5710522 20.3892333,22.9421953 C18.7550603,21.3133385 17.3980648,19.6125412 16.3182467,17.8398034 Z" fill="#C32F33" mask="url(#mask-10)"></path>
                        </g>
                        <g id="Path-81" transform="translate(37.716571, 96.673096)">
                            <mask id="mask-12" fill="white">
                                <use xlink:href="#path-11"></use>
                            </mask>
                            <use id="Mask" fill="#BA1C20" xlink:href="#path-11"></use>
                            <path d="M0.911918286,2.64061286 C7.96338191,22.4850157 13.6862502,35.7072963 18.0805231,42.3074546 C25.0737823,52.8112669 35.6406042,59.5103305 39.1422635,61.8704066 C45.6512023,66.2573526 62.2095333,66.826114 65.8337109,74.5616524 C70.8590672,85.2879031 71.9144969,81.0574879 69,61.8704066 L50.8108666,32.494303 L2.63359528,-5 L0.911918286,2.64061286 Z" fill="#D02B30" mask="url(#mask-12)"></path>
                        </g>
                    </g>
                    <g id="Group-25" transform="translate(86.899888, 280.981821) scale(-1, 1) rotate(-30.000000) translate(-86.899888, -280.981821) translate(63.899888, 251.481821)">
                        <path d="M39.8253544,11.61461 L24.8487098,39.9138814 C16.5080131,34.9875197 11.2423257,30.901472 9.05164765,27.6557381 C5.76563059,22.7871372 7.27848635,17.5417751 9.05164765,14.5781926 C10.824809,11.61461 14.7242869,5.87392263 23.0740435,5.11591145 C28.6405479,4.61057066 34.2243182,6.77680351 39.8253544,11.61461 Z" id="Path-24" fill="#AAA1A1" transform="translate(23.469563, 22.479051) rotate(-113.000000) translate(-23.469563, -22.479051) "></path>
                        <path d="M20.827583,38.6201017 C17.879148,37.340375 15.0492067,35.9311803 12.337759,34.3925176 C11.8317903,35.2538823 11.5520757,36.1160379 11.4986152,36.9789843 L18.3184132,40.8490086 L20.827583,38.6201017 Z" id="Path-36" fill="#1A181C"></path>
                        <path d="M15.4478751,49.2681926 C12.9699213,47.493787 11.9468383,43.2608158 13.0502891,39.6613065 C13.3327967,38.7397535 12.1977513,39.6588951 10.8682563,37.401183 C10.3061531,36.4466346 7.83547393,35.8765155 7.38700142,36.8181099 C4.81981729,42.2080642 5.09894515,48.8753028 10.2544442,54.4664471 C14.030242,58.5613039 17.6205663,57.1426897 18.0601458,54.3912792 C18.3256233,52.7296052 16.6197844,50.1073699 15.4478751,49.2681926 Z" id="Path-25" fill="#AAA1A1" transform="translate(11.945033, 46.681235) rotate(-141.000000) translate(-11.945033, -46.681235) "></path>
                    </g>
                    <path d="M77.9161325,382.773809 C82.975422,386.661116 88.1964443,388.604769 93.5791995,388.604769 C103.275623,388.604769 117.888902,376.243493 123.765674,370.891074 C127.29823,367.673709 130.841596,363.825066 134.395771,359.345145 L134.395746,359.345125 C134.738989,358.912478 134.666513,358.283495 134.233867,357.940252 C134.078157,357.816718 133.889165,357.742391 133.691019,357.726758 C130.133151,357.446056 127.02938,357.003658 124.379704,356.399564 C121.276206,355.692004 118.719913,354.827693 116.710825,353.806634 C111.650844,359.237982 105.822321,364.577037 99.2252561,369.823801 C92.6281914,375.070565 85.5251502,379.387234 77.9161325,382.773809 Z" id="Path-124" fill="#A49B9D"></path>
                    <path d="M128.273627,340.367357 C131.676362,337.256918 136.449954,332.318205 142.594403,325.551218 C148.738852,318.784231 154.898861,311.248789 161.074428,302.94489 C159.808053,318.482182 156.156482,329.251348 150.119714,335.25239 C144.082946,341.253432 136.800917,342.958421 128.273627,340.367357 Z" id="Path-125" fill="#A49B9D"></path>
                </g>
            </g>
        </g>
    </g>
</svg>