<svg xmlns="http://www.w3.org/2000/svg" xmlns:xlink="http://www.w3.org/1999/xlink" width="461" height="434" viewBox="0 0 461 434">
    <defs>
        <linearGradient id="a" x1="43.9%" x2="50%" y1="-25.06%" y2="123.325%">
            <stop offset="0%" stop-color="#EDF9F6" stop-opacity="0"/>
            <stop offset="100%" stop-color="#00AE81" stop-opacity=".177"/>
        </linearGradient>
        <path id="b" d="M15.812.854C3.282 48.222-1.535 78.074 1.36 90.407 4.255 102.74 16.8 108.405 38.993 107.4c3.838 16.87 13.493 24.576 28.965 23.12 15.473-1.457 25.626-9.164 30.46-23.12 13.982 4.119 24.092 3.68 30.33-1.315 9.358-7.493 6.771-20.698 4.732-26.76-2.04-6.06-6.252-8.562-10.146-22.44-2.595-9.252-3.924-18.563-3.987-27.933l-5.946-28.1H15.812z"/>
        <path id="d" d="M2.166.654c-6.695 46.054 3.754 71.087 31.347 75.1 41.39 6.019 56.903-26.758 58.772-42.305 1.245-10.365 1.245-21.297 0-32.795H2.166z"/>
    </defs>
    <g fill="none" fill-rule="evenodd">
        <path fill="url(#a)" d="M117.693 407.511c35.622 34.119 58.777-24.678 122.184-28.06 63.407-3.384 42.778 3.724 106.553 15.099s108.823-20.932 123.358-69.59c14.535-48.66-13.88-64.314-29.591-108.393-15.712-44.08 20.117-65.382 17.66-111.507-2.456-46.124-41.087-69.92-110.815-49.464-69.73 20.456-50.704 49.996-95.666 65.076-44.961 15.08-91.213-38.405-142.876-27.636-51.663 10.769-94.71 70.629-77.741 122.31 16.968 51.682 63.239 32.466 86.215 77.42 22.976 44.954-34.903 80.627.72 114.745z" transform="rotate(-9 239.402 372.932)"/>
        <path fill="#FFF" d="M218.95 216.007l-15.728 94.112 82.2 5.624 1.664-60.723-18.152-43.874z"/>
        <path fill="#DC3E42" d="M223.525 238.171h44.127l1.282 10.569h-47.472zM220.371 260.24h50.443l2.171 9.45H218.95zM217.365 282.25h57.394l1.867 9.433c-41.533.886-62.003.886-61.41 0 .592-.886 1.309-4.03 2.149-9.434z"/>
        <path fill="#2C3F4D" d="M177.664 318.164l-31.736 14.66 60.484 31.486 8.791-17.263-21.91-14.223 43.665-7.235h18.896l41.473 9.684-5.802 8.564 8.55 15.28 38.05-30.324-37.885-17.021-23.888-5.865h-61.765z"/>
        <path fill="#1A181C" d="M186.446 211.796l-21.267 11.224-34.228-17.067-8.628 17.067 37.049 22.344 23.044-1.542-17.237 70.623 48.546 14.348 10.787-94.69-1.808-17.537z"/>
        <path fill="#ED9372" d="M378.944 199.284l17.879-13.691 7.194-18.078a1.25 1.25 0 0 1 .902-.76l6.504-1.378 8.684 2.161a1.25 1.25 0 0 1-.248 2.462l-8.436.36-1.196 4.866 1.849 3.903 6.433 1.628 3.677-2.388-3.69-5.682a1.25 1.25 0 0 1 1.05-1.93h3.759l5.21 3.354 1.873 7.188a3.75 3.75 0 0 1-1.178 3.783l-7.065 6.104a7.5 7.5 0 0 1-5.67 1.786l-11.029-1.132-16.911 24.095-9.591-16.65z"/>
        <path fill="#1A181C" d="M266.42 236.89l11.21 78.853 37.752-6.263-12.67-66.025 46.341 2.804 61.09-44.403-24.238-21.29-44.94 43.08-27.89-7.737-21.615.098-17.73 2.457z"/>
        <g transform="translate(179.954 113.127)">
            <mask id="c" fill="#fff">
                <use xlink:href="#b"/>
            </mask>
            <use fill="#7C3C22" xlink:href="#b"/>
            <path fill="#682E21" d="M66.926 76.682c-6.752 12.006-10.77 21.26-12.054 27.762-1.927 9.754 3.872 18.438.452 21.784-2.28 2.232-7.768-2.41-16.465-13.925l-12.526 1.404-34.078-20.881 1.208-46.759 13.66-58.115h26.503v46.331l33.3 42.4z" mask="url(#c)"/>
        </g>
        <g transform="translate(206.083 113.327)">
            <mask id="e" fill="#fff">
                <use xlink:href="#d"/>
            </mask>
            <use fill="#ED9372" xlink:href="#d"/>
            <path fill="#E18057" d="M14.867-8.606c-3.823 14.055-5.734 26.522-5.734 37.4s2.675 23.546 8.024 38.005l4.786 7.196L.205 62.087-2.582-3.726l17.449-4.88z" mask="url(#e)"/>
        </g>
        <path fill="#53231E" d="M259.307 161.648c-8.182-.687-14.016.03-17.502 2.15-5.229 3.182-5.787 10.184-11.477 13.392-3.793 2.14-8.83 2.71-15.112 1.712 5.49 9.395 12.584 14.093 21.28 14.093 8.696 0 16.024-4.994 21.985-14.981 2.634 8.918 8.885 13.631 18.751 14.14 9.867.51 16.822-3.106 20.864-10.846-3.13 2.579-6.06 3.407-8.791 2.484-4.097-1.383-2.79-5.17-8.414-12.998-3.75-5.218-7.799-7.879-12.147-7.981l-9.437-1.165z"/>
        <path fill="#7C3C22" d="M266.115 117.197c3.823-.944 7.56-1.135 11.216-.573 3.654.561 6.906 1.939 9.755 4.131-.824-6.346-3.592-9.997-8.302-10.953-4.71-.956-8.933 1.509-12.669 7.395zM223.24 120.755c3.374-2.359 6.77-3.745 10.185-4.158 3.417-.413 6.812-.127 10.187.858-3.163-6.026-7.102-8.644-11.816-7.854-4.715.791-7.567 4.509-8.557 11.154z"/>
        <path fill="#1A181C" d="M286.818 332.64l17.589 34.702-69.383 31.076-22.555 30.545v-42.427z"/>
        <path fill="#1A181C" d="M222.344 332.64l-19.122 36.903 76.44 34.976 20.413 27.109-2.248-41.978z"/>
        <path fill="#998D1C" d="M266.097 384.633l15.666 6.309-8.963 15.33-18.305-8.225 8.713-12.35 2.89-1.064zm-.361 4.656l-4.812 7.484 9.235 4.064 4.629-7.737-9.052-3.811z"/>
        <path fill="#998D1C" d="M255.755 375.333l6.943 14.674-18.076 5.445-7.263-14.65 18.396-5.47zm-3.037 5.468l-7.928 2.873 2.986 7.307 8.22-3.151-3.278-7.029z"/>
        <path fill="#8C8486" d="M136.2 196.675l-20.017 37.694c-11.148-6.562-18.186-12.004-21.114-16.328-4.392-6.484-2.37-13.47 0-17.418 2.37-3.948 7.582-11.594 18.742-12.604 7.44-.673 14.903 2.213 22.39 8.656z"/>
        <path fill="#6F6669" d="M96.586 198.067c-4.337-3.025-6.896-4.537-7.679-4.537-1.173 0-9.87 8.061-13.563 5.426-3.693-2.635-4.852-9.37-1.422-14.181 2.286-3.208 6.997-5.734 14.13-7.58-10.415-1.736-17.248-.348-20.5 4.163-4.877 6.766-5.675 16.287 1.51 24.052 4.79 5.177 11.786 3.89 20.989-3.86l3.876 1.267 2.659-4.75z"/>
        <path fill="#CC764F" d="M195.88 126.821c-4.2-6.442-8.08-8.453-11.639-6.031-5.338 3.632-7.281 9.05-5.065 18.025 1.478 5.984 5.597 8.976 12.356 8.976 1.18-3.914 2.07-7.379 2.669-10.394.598-3.015 1.158-6.54 1.68-10.576z"/>
        <path fill="#AF6542" d="M195.419 129.493c-2.875-4.357-5.53-5.717-7.965-4.08-3.654 2.457-4.984 6.121-3.467 12.192 1.011 4.047 3.83 6.07 8.456 6.07.808-2.647 1.417-4.99 1.826-7.03.41-2.038.793-4.423 1.15-7.152z"/>
        <path stroke="#EBB333" stroke-linecap="round" stroke-linejoin="round" stroke-width="1.721" d="M183.283 143.305c2.69 0 4.147 1.132 4.371 3.395.338 3.396-1.807 4.747-3.846 4.81-2.04.064-3.988-.335-4.738-2.888-.5-1.703-.023-3.352 1.43-4.947"/>
        <path fill="#CC764F" d="M258.387 136.127c6.794 0 11.38 15.022 11.38 19.674 0 4.65-2.231 15.104-10.492 15.104-8.26 0-12.451-5.401-12.394-14.16.057-8.76 4.712-20.618 11.506-20.618z"/>
        <path stroke="#AF6542" stroke-linecap="round" stroke-linejoin="round" stroke-width="2.582" d="M267.567 131.5c1.902-3.424 4.886-5.137 8.953-5.137 4.066 0 7.033 1.713 8.902 5.138M242.558 131.5c-1.41-3.424-4.248-5.137-8.515-5.137-4.266 0-7.312 1.713-9.138 5.138"/>
        <path fill="#1A181C" d="M160.822 113.981h172.97l7.173-30.163c-14.229.595-24.237-4.42-30.026-15.046-8.684-15.937-6.931-45-28.357-58.548-21.426-13.548-58.477-13.191-71.77-1.533-6.666 5.846-12.038 12.187-15.98 23.362-4.731 13.41-4.731 31.453-11.078 40.136-5.877 8.041-15.508 13.282-28.893 15.724l5.961 26.068z"/>
        <path fill="#FCE9B6" d="M251.18 39.89c25.36 0 26.857 15.042 22.473 23.641-1.608 3.155-4.695 5.39-9.263 6.708 2.161 2.976 2.161 5.17 0 6.583-1.22.797-2.806.319-4.758-1.435.234 2.13-.476 3.453-2.13 3.969-1.655.516-3.187-.17-4.597-2.058-.643 1.964-2.054 2.946-4.233 2.946-2.178 0-3.625-1.62-4.34-4.857-2.018 2.947-3.982 3.788-5.893 2.524-1.91-1.265-1.91-3.53 0-6.795-4.69-2.83-7.592-5.015-8.705-6.556-9.488-13.136 2.064-24.67 21.447-24.67zm-11.871 9.982a7.745 7.745 0 1 0 0 15.49 7.745 7.745 0 0 0 0-15.49zm24.096-.861a7.745 7.745 0 1 0 0 15.49 7.745 7.745 0 0 0 0-15.49z"/>
    </g>
</svg>
